<svg xmlns="http://www.w3.org/2000/svg" viewBox="0 -75.6 319.3 79.6" width="319" height="80"><title>Lectrix</title><path fill="#142247" d="M8.1 0.0V-71.60000000000001H21.6V-12.8H51.900000000000006V0.0Z M82.9 1.6Q75.2 1.6 69.15 -1.9000000000000001Q63.1 -5.4 59.650000000000006 -11.5Q56.2 -17.6 56.2 -25.400000000000002Q56.2 -32.7 59.6 -38.900000000000006Q63.0 -45.1 68.9 -48.85Q74.80000000000001 -52.6 82.4 -52.6Q90.6 -52.6 96.2 -49.1Q101.80000000000001 -45.6 104.70000000000002 -39.75Q107.60000000000001 -33.9 107.60000000000001 -26.8Q107.60000000000001 -25.200000000000003 107.5 -24.050000000000004Q107.4 -22.900000000000002 107.30000000000001 -22.400000000000002H63.5V-31.700000000000003H95.0Q94.9 -33.4 94.0 -35.2Q93.10000000000001 -37.0 91.5 -38.5Q89.9 -40.0 87.65 -40.95Q85.4 -41.900000000000006 82.5 -41.900000000000006Q78.7 -41.900000000000006 75.55000000000001 -39.900000000000006Q72.4 -37.9 70.60000000000001 -34.35Q68.80000000000001 -30.8 68.80000000000001 -25.900000000000002Q68.80000000000001 -20.8 70.70000000000002 -17.25Q72.60000000000001 -13.700000000000001 75.85000000000001 -11.850000000000001Q79.10000000000001 -10.0 83.10000000000001 -10.0Q87.80000000000001 -10.0 91.0 -12.05Q94.2 -14.100000000000001 96.0 -17.2L106.60000000000001 -12.0Q103.0 -5.7 97.2 -2.05Q91.4 1.6 82.9 1.6Z M139.4 1.6Q131.60000000000002 1.6 125.55000000000001 -1.8500000000000003Q119.50000000000001 -5.300000000000001 116.05000000000001 -11.450000000000001Q112.60000000000001 -17.6 112.60000000000001 -25.5Q112.60000000000001 -33.4 116.05000000000001 -39.5Q119.50000000000001 -45.6 125.55000000000001 -49.1Q131.60000000000002 -52.6 139.4 -52.6Q147.9 -52.6 154.0 -49.0Q160.10000000000002 -45.400000000000006 162.8 -38.6L150.8 -33.6Q149.20000000000002 -37.1 146.3 -38.75Q143.4 -40.400000000000006 139.4 -40.400000000000006Q135.5 -40.400000000000006 132.4 -38.550000000000004Q129.3 -36.7 127.50000000000001 -33.400000000000006Q125.70000000000002 -30.1 125.70000000000002 -25.5Q125.70000000000002 -20.900000000000002 127.50000000000001 -17.55Q129.3 -14.200000000000001 132.4 -12.350000000000001Q135.5 -10.5 139.4 -10.5Q143.8 -10.5 146.70000000000002 -12.45Q149.60000000000002 -14.4 151.4 -17.8L163.10000000000002 -12.600000000000001Q160.10000000000002 -6.2 154.0 -2.3Q147.9 1.6 139.4 1.6Z M166.3 -39.800000000000004V-51.0H175.70000000000002V-39.800000000000004ZM192.10000000000002 0.8Q184.20000000000002 0.8 179.70000000000002 -3.7500000000000004Q175.20000000000002 -8.3 175.20000000000002 -16.3V-65.4H188.3V-18.7Q188.3 -15.0 189.8 -13.25Q191.3 -11.5 194.70000000000002 -11.5Q196.3 -11.5 197.70000000000002 -11.95Q199.10000000000002 -12.4 201.20000000000002 -13.700000000000001V-0.9Q199.0 -0.1 196.75 0.35000000000000003Q194.5 0.8 192.10000000000002 0.8ZM187.8 -39.800000000000004V-51.0H200.8V-39.800000000000004Z M209.60000000000002 0.0V-51.0H221.9V-44.2H222.70000000000002Q224.0 -46.6 226.15 -48.45Q228.3 -50.300000000000004 231.20000000000002 -51.400000000000006Q234.10000000000002 -52.5 237.4 -52.5Q239.4 -52.5 241.0 -52.2Q242.60000000000002 -51.900000000000006 243.8 -51.400000000000006V-38.300000000000004Q241.70000000000002 -39.1 239.65000000000003 -39.650000000000006Q237.60000000000002 -40.2 235.3 -40.2Q231.4 -40.2 228.55 -38.25Q225.70000000000002 -36.300000000000004 224.20000000000002 -32.95Q222.70000000000002 -29.6 222.70000000000002 -25.400000000000002V0.0Z M249.70000000000002 0.0V-51.0H262.8V0.0ZM256.3 -56.6Q252.8 -56.6 250.3 -59.1Q247.8 -61.6 247.8 -65.10000000000001Q247.8 -68.60000000000001 250.3 -71.05000000000001Q252.8 -73.5 256.3 -73.5Q259.8 -73.5 262.25 -71.05000000000001Q264.7 -68.60000000000001 264.7 -65.10000000000001Q264.7 -61.6 262.25 -59.1Q259.8 -56.6 256.3 -56.6Z M267.70000000000005 0.0 289.3 -31.6H290.6L302.70000000000005 -51.0H318.70000000000005L297.0 -20.6H296.5L283.20000000000005 0.0ZM267.8 -51.0H283.3L296.5 -31.200000000000003H297.1L318.70000000000005 0.0H303.20000000000005L289.5 -20.8H289.0Z"/></svg>